<svg id="Layer_1" data-name="Layer 1" xmlns="http://www.w3.org/2000/svg" viewBox="0 0 502 96"><defs><style>.cls-1{fill:#fff;}</style></defs><path class="cls-1" d="M1,12.63C1,7.15,3.74,2.06,12.35,2.06c5.48,0,9.53,4.05,10.31,9.92,1.83,13.57,8.23,30.54,18.67,39.28,8.22-11,11.22-25.58,13.05-38.63,1-7.57,5.09-10.57,11.22-10.57,7.44,0,10.18,5.09,10.18,11,0,19.31-17,56.24-33.15,71.12C36.24,90,30,93.81,22,93.81c-7.18,0-10.7-4.7-10.7-9.66,0-10.44,13.44-10.18,19-17.75C11.7,53.61,1,30.77,1,12.63Z"/><path class="cls-1" d="M132.16,12.37c0-6.52,4.83-10.31,10.31-10.31,5.75,0,10.57,3.79,10.57,10.31V58.7c0,23.36-11.87,36.54-35.49,36.54C93.4,95.24,81.4,82.06,81.4,58.7V12.37c0-6.52,4.83-10.31,10.44-10.31s10.44,3.79,10.44,10.31v47c0,10.18,5.09,14.88,15,14.88s14.87-4.7,14.87-14.88Z"/><path class="cls-1" d="M258.11,36c0-9.52-4.83-14.48-13.84-14.48-8.74,0-13.7,5.87-13.7,14.74V83.76c0,6.65-4.31,10-9.92,10s-9.92-3.4-9.92-10V36.25c0-8.87-4.82-14.74-13.57-14.74-9,0-13.83,5-13.83,14.48V83.5c0,6.52-4.83,10.31-10.31,10.31-5.74,0-10.57-3.79-10.57-10.31V36.65C162.45,12.5,173,.76,192.72.76c15,0,24.15,6.65,27.93,15.66,3.79-9,12.79-15.66,27.67-15.66,19.7,0,30.8,11.74,30.8,35.89V83.5c0,6.52-4.83,10.31-10.57,10.31-5.48,0-10.44-3.79-10.44-10.31Z"/><path class="cls-1" d="M384.05,36c0-9.52-4.82-14.48-13.83-14.48-8.74,0-13.7,5.87-13.7,14.74V83.76c0,6.65-4.31,10-9.92,10s-9.92-3.4-9.92-10V36.25c0-8.87-4.83-14.74-13.57-14.74-9,0-13.83,5-13.83,14.48V83.5c0,6.52-4.83,10.31-10.31,10.31-5.74,0-10.57-3.79-10.57-10.31V36.65C288.4,12.5,299,.76,318.67.76c15,0,24.14,6.65,27.93,15.66,3.78-9,12.79-15.66,27.67-15.66,19.7,0,30.79,11.74,30.79,35.89V83.5c0,6.52-4.82,10.31-10.57,10.31-5.48,0-10.44-3.79-10.44-10.31Z"/><path class="cls-1" d="M412.91,47.22c0-29.37,17.49-46.46,44-46.46S501,17.85,501,47.22s-17.49,48-44.11,48S412.91,76.71,412.91,47.22Zm68.12,0c0-15.53-9.65-25.84-24.14-25.84S433,31.69,433,47.22s9.52,26.1,23.88,26.1S481,62.88,481,47.22Z"/></svg>